<?xml version="1.0" standalone="no"?>
<!DOCTYPE svg PUBLIC "-//W3C//DTD SVG 20010904//EN"
 "http://www.w3.org/TR/2001/REC-SVG-20010904/DTD/svg10.dtd">
<svg version="1.0" xmlns="http://www.w3.org/2000/svg"
 width="512.000000pt" height="512.000000pt" viewBox="0 0 512.000000 512.000000"
 preserveAspectRatio="xMidYMid meet">

<g transform="translate(0.000000,512.000000) scale(0.100000,-0.100000)"
fill="#000000" stroke="none">
<path d="M2340 5109 c-889 -77 -1683 -622 -2075 -1424 -201 -412 -290 -860
-257 -1295 40 -524 206 -963 526 -1390 82 -110 317 -350 426 -436 210 -165
496 -326 735 -412 478 -173 1019 -197 1512 -67 181 48 298 92 479 180 506 247
921 662 1169 1170 89 183 136 306 180 479 113 444 113 848 0 1291 -106 416
-329 810 -640 1134 -528 549 -1294 836 -2055 770z m411 -509 c395 -40 752
-180 1064 -419 90 -68 268 -245 345 -341 321 -404 483 -926 442 -1428 -24
-283 -83 -505 -202 -747 -109 -223 -202 -356 -375 -533 -176 -182 -337 -298
-570 -413 -164 -80 -307 -129 -477 -164 -605 -124 -1232 28 -1708 412 -89 72
-267 254 -331 338 -197 258 -336 567 -393 876 -151 820 199 1639 894 2095 386
252 859 369 1311 324z"/>
<path d="M2449 3813 c-182 -93 -182 -350 0 -445 91 -48 205 -36 281 30 83 71
112 192 70 290 -24 56 -83 116 -136 138 -57 24 -152 18 -215 -13z"/>
<path d="M2486 3064 c-32 -10 -64 -31 -96 -63 -82 -83 -80 -57 -80 -820 0
-405 4 -680 10 -701 31 -112 116 -180 234 -187 63 -4 77 -1 126 24 61 31 113
92 130 151 6 24 10 281 10 722 l0 685 -24 50 c-30 66 -91 120 -157 139 -64 19
-89 19 -153 0z"/>
</g>
</svg>
