<?xml version="1.0" standalone="no"?>
<!DOCTYPE svg PUBLIC "-//W3C//DTD SVG 20010904//EN"
 "http://www.w3.org/TR/2001/REC-SVG-20010904/DTD/svg10.dtd">
<svg version="1.0" xmlns="http://www.w3.org/2000/svg"
 width="512.000000pt" height="512.000000pt" viewBox="0 0 512.000000 512.000000"
 preserveAspectRatio="xMidYMid meet">

<g transform="translate(0.000000,512.000000) scale(0.100000,-0.100000)"
fill="#000000" stroke="none">
<path d="M2367 4785 c-418 -70 -768 -364 -912 -765 -83 -232 -87 -527 -9 -759
149 -446 547 -760 1013 -799 483 -41 930 209 1149 643 164 325 164 723 -1
1050 -107 214 -308 414 -525 524 -205 104 -483 145 -715 106z m408 -330 c86
-24 230 -94 302 -149 161 -122 277 -309 319 -513 26 -123 15 -301 -24 -423
-95 -291 -340 -513 -634 -575 -94 -20 -262 -20 -356 0 -154 32 -296 109 -415
224 -330 318 -346 838 -38 1183 118 131 307 236 483 268 75 13 291 4 363 -15z"/>
<path d="M3820 2544 c-161 -34 -322 -158 -394 -304 -48 -100 -66 -188 -66
-340 l0 -125 -35 -19 c-51 -28 -112 -98 -143 -164 l-27 -57 0 -470 0 -470 27
-57 c37 -79 98 -142 177 -181 l66 -32 575 0 575 0 66 32 c79 39 140 102 177
181 l27 57 0 470 0 470 -27 57 c-31 66 -92 136 -143 164 l-35 19 0 125 c0 70
-7 156 -15 195 -46 221 -229 404 -450 450 -87 18 -269 18 -355 -1z m360 -340
c60 -33 112 -99 130 -162 5 -20 10 -81 10 -134 l0 -98 -321 0 -321 0 3 118 c4
109 6 121 35 172 32 57 98 111 158 130 17 5 81 8 141 7 102 -2 114 -4 165 -33z
m338 -726 c9 -9 12 -115 12 -415 0 -388 -1 -403 -19 -413 -27 -14 -995 -14
-1022 0 -18 10 -19 25 -19 413 0 300 3 406 12 415 17 17 1019 17 1036 0z"/>
<path d="M3920 1308 c-71 -49 -75 -61 -75 -243 0 -150 2 -166 21 -191 39 -53
71 -69 134 -69 63 0 95 16 134 69 19 25 21 41 21 191 0 150 -2 166 -21 192
-35 48 -82 73 -134 73 -32 0 -57 -7 -80 -22z"/>
<path d="M2245 2259 c-671 -51 -1266 -267 -1587 -577 -105 -101 -163 -179
-212 -283 -64 -135 -71 -176 -71 -444 0 -231 1 -242 24 -300 33 -83 125 -174
204 -203 l58 -22 1142 2 c1124 3 1142 3 1169 23 33 24 68 91 68 130 0 46 -38
112 -78 137 l-37 23 -1105 3 c-1021 2 -1106 3 -1117 19 -16 21 -18 314 -3 394
55 293 477 572 1064 704 299 67 581 91 911 80 366 -13 365 -13 403 13 97 70
86 220 -21 270 -77 37 -516 53 -812 31z"/>
</g>
</svg>
