<?xml version="1.0" standalone="no"?>
<!DOCTYPE svg PUBLIC "-//W3C//DTD SVG 20010904//EN"
 "http://www.w3.org/TR/2001/REC-SVG-20010904/DTD/svg10.dtd">
<svg version="1.0" xmlns="http://www.w3.org/2000/svg"
 width="275.000000pt" height="281.000000pt" viewBox="0 0 275.000000 281.000000"
 preserveAspectRatio="xMidYMid meet">

<g transform="translate(0.000000,281.000000) scale(0.100000,-0.100000)"
fill="#000000" stroke="none">
<path d="M539 2458 c-96 -130 -112 -155 -105 -166 3 -5 53 -44 111 -88 58 -43
131 -98 161 -121 l56 -42 -31 -19 c-16 -10 -91 -47 -165 -82 -74 -36 -135 -68
-136 -72 0 -3 33 -73 73 -155 l73 -150 310 152 c194 95 319 163 336 181 15 16
32 50 39 75 11 41 10 53 -5 93 -20 53 -28 60 -296 258 -248 184 -324 238 -335
238 -6 0 -45 -46 -86 -102z"/>
<path d="M1946 2553 c-42 -11 -98 -58 -131 -112 l-35 -55 0 -384 0 -383 21 11
c35 19 109 38 172 45 66 7 198 -15 249 -41 15 -8 29 -14 33 -14 11 0 5 734 -6
775 -27 96 -125 166 -229 164 -30 -1 -64 -4 -74 -6z"/>
<path d="M1958 1511 c-45 -15 -84 -48 -118 -101 -32 -50 -33 -54 -39 -198 -6
-132 -10 -153 -35 -209 -65 -144 -229 -243 -401 -243 -203 0 -390 138 -430
319 -18 83 -124 151 -235 151 -80 0 -133 -23 -190 -80 l-43 -43 6 -73 c16
-184 146 -412 312 -547 75 -60 234 -140 340 -169 66 -18 108 -22 235 -22 182
-1 266 17 415 89 350 168 538 532 486 938 -16 118 -90 187 -209 193 -37 2 -79
0 -94 -5z"/>
</g>
</svg>
