<?xml version="1.0" standalone="no"?>
<!DOCTYPE svg PUBLIC "-//W3C//DTD SVG 20010904//EN"
 "http://www.w3.org/TR/2001/REC-SVG-20010904/DTD/svg10.dtd">
<svg version="1.0" xmlns="http://www.w3.org/2000/svg"
 width="512.000000pt" height="512.000000pt" viewBox="0 0 512.000000 512.000000"
 preserveAspectRatio="xMidYMid meet">

<g transform="translate(0.000000,512.000000) scale(0.100000,-0.100000)"
fill="#000000" stroke="none">
<path d="M2265 4834 c-613 -83 -1167 -403 -1529 -884 -296 -393 -449 -826
-463 -1311 -12 -389 59 -725 224 -1070 l65 -137 -93 -308 c-84 -276 -94 -317
-93 -384 1 -108 30 -178 108 -256 77 -77 148 -107 256 -108 67 -1 108 9 386
93 l310 93 104 -52 c248 -125 499 -199 780 -231 153 -17 472 -7 630 21 993
174 1755 968 1885 1965 18 139 21 423 5 552 -97 791 -569 1458 -1275 1803
-228 112 -462 183 -708 215 -145 19 -452 18 -592 -1z m566 -320 c1163 -162
1924 -1296 1638 -2439 -173 -693 -729 -1249 -1424 -1424 -185 -46 -262 -55
-485 -55 -229 0 -313 10 -510 61 -114 29 -293 99 -408 159 -96 50 -175 69
-247 60 -27 -3 -184 -47 -349 -96 -166 -50 -307 -88 -317 -85 -46 15 -44 32
51 348 50 166 93 329 97 363 7 74 -13 149 -67 249 -94 174 -177 435 -205 651
-72 552 90 1101 454 1536 304 363 770 615 1251 677 114 15 401 12 521 -5z"/>
<path d="M2482 3769 c-73 -12 -156 -43 -220 -81 -74 -44 -205 -169 -254 -241
-78 -115 -138 -274 -138 -366 0 -103 98 -179 197 -152 61 17 101 66 123 150
25 100 62 171 122 237 68 74 124 111 198 130 153 39 307 -44 384 -206 28 -58
31 -75 31 -160 0 -85 -3 -100 -27 -141 -40 -67 -129 -144 -222 -191 -158 -80
-264 -224 -286 -388 -13 -101 -12 -212 1 -266 14 -56 73 -110 130 -119 51 -9
125 26 156 74 20 30 23 47 23 135 1 176 26 233 126 280 196 93 366 287 409
467 21 91 19 220 -5 315 -89 351 -414 579 -748 523z"/>
<path d="M2460 1788 c-25 -14 -58 -44 -75 -67 -27 -39 -30 -50 -30 -120 0 -68
3 -82 27 -117 15 -21 44 -50 65 -64 31 -21 48 -25 113 -25 65 0 82 4 113 25
21 14 50 43 65 64 24 35 27 49 27 116 0 67 -3 81 -27 116 -44 62 -90 88 -167
92 -55 3 -74 -1 -111 -20z"/>
</g>
</svg>
