<?xml version="1.0" standalone="no"?>
<!DOCTYPE svg PUBLIC "-//W3C//DTD SVG 20010904//EN"
 "http://www.w3.org/TR/2001/REC-SVG-20010904/DTD/svg10.dtd">
<svg version="1.0" xmlns="http://www.w3.org/2000/svg"
 width="512.000000pt" height="512.000000pt" viewBox="0 0 512.000000 512.000000"
 preserveAspectRatio="xMidYMid meet">

<g transform="translate(0.000000,512.000000) scale(0.100000,-0.100000)"
fill="#000000" stroke="none">
<path d="M2420 4144 c-111 -23 -224 -86 -311 -173 -249 -250 -252 -646 -5
-896 l71 -72 -94 -48 c-103 -53 -226 -131 -255 -164 l-18 -20 -42 33 c-22 19
-73 51 -112 73 l-71 38 38 43 c151 171 144 450 -18 623 -183 195 -489 201
-677 13 -98 -98 -140 -211 -134 -356 5 -111 29 -180 94 -268 l44 -60 -58 -29
c-151 -76 -263 -194 -348 -366 -55 -112 -104 -274 -104 -345 0 -61 29 -127 76
-174 75 -75 82 -76 536 -76 l398 0 22 -46 c28 -61 79 -111 142 -140 41 -19 68
-24 133 -24 l82 0 6 -58 c20 -179 86 -328 197 -447 212 -227 510 -301 801
-200 105 36 174 82 272 180 133 132 198 271 220 468 l6 57 83 0 c73 0 90 4
145 31 64 32 108 80 136 147 l14 32 399 0 c447 0 460 2 530 69 81 79 97 164
58 314 -68 263 -225 476 -428 578 l-58 29 44 60 c63 86 88 156 94 267 3 74 0
105 -16 160 -62 202 -239 333 -452 333 -136 0 -250 -50 -343 -149 -162 -173
-169 -452 -18 -623 l38 -43 -71 -38 c-39 -22 -89 -54 -111 -72 l-40 -32 -54
44 c-58 47 -148 102 -251 153 l-65 32 71 73 c247 250 244 644 -6 896 -155 156
-374 220 -590 173z m286 -225 c111 -42 190 -115 239 -222 118 -257 -42 -552
-324 -598 -225 -36 -444 127 -482 360 -28 176 73 366 236 442 110 52 223 58
331 18z m-1361 -416 c95 -32 175 -143 175 -243 0 -136 -124 -260 -260 -260
-226 0 -344 275 -187 438 73 76 171 100 272 65z m2630 -11 c196 -101 190 -373
-10 -468 -136 -65 -306 12 -349 157 -20 65 -20 93 -2 152 24 80 84 144 163
173 51 19 148 12 198 -14z m-1216 -651 c110 -37 256 -109 337 -166 66 -47 155
-139 205 -211 79 -115 179 -378 179 -471 0 -52 -37 -73 -129 -73 l-76 0 -19
53 c-40 113 -138 247 -238 322 -133 101 -293 155 -458 155 -165 0 -325 -54
-458 -155 -100 -75 -198 -209 -238 -322 l-19 -53 -76 0 c-92 0 -129 21 -129
73 0 93 100 356 180 472 85 124 201 221 360 300 239 120 389 140 579 76z
m-1329 -101 c80 -28 166 -71 204 -102 l28 -24 -37 -59 c-56 -86 -120 -227
-152 -332 l-28 -93 -392 0 c-430 0 -430 0 -417 58 30 134 64 223 113 299 87
134 195 210 376 265 82 24 216 19 305 -12z m2554 14 c172 -43 315 -146 397
-285 38 -63 88 -199 102 -276 12 -64 19 -63 -416 -63 l-392 0 -28 93 c-32 105
-96 246 -152 332 l-37 59 28 24 c38 32 164 91 239 113 76 22 179 24 259 3z
m-1249 -545 c156 -58 272 -174 327 -326 26 -71 35 -207 19 -285 -28 -131 -120
-266 -235 -340 -169 -109 -403 -109 -572 0 -266 172 -325 544 -125 787 74 90
207 168 321 189 59 11 206 -3 265 -25z"/>
<path d="M2513 2014 c-42 -21 -63 -68 -63 -143 l0 -61 -65 0 c-78 0 -108 -12
-130 -55 -23 -41 -14 -93 21 -126 21 -20 38 -24 100 -27 l74 -4 0 -54 c0 -99
40 -154 110 -154 70 0 110 55 110 154 l0 54 74 4 c62 3 79 7 100 27 35 33 44
85 21 126 -22 43 -52 55 -130 55 l-65 0 0 61 c0 76 -21 122 -65 143 -41 20
-52 20 -92 0z"/>
</g>
</svg>
