<?xml version="1.0" standalone="no"?>
<!DOCTYPE svg PUBLIC "-//W3C//DTD SVG 20010904//EN"
 "http://www.w3.org/TR/2001/REC-SVG-20010904/DTD/svg10.dtd">
<svg version="1.0" xmlns="http://www.w3.org/2000/svg"
 width="512.000000pt" height="512.000000pt" viewBox="0 0 512.000000 512.000000"
 preserveAspectRatio="xMidYMid meet">

<g transform="translate(0.000000,512.000000) scale(0.100000,-0.100000)"
fill="#000000" stroke="none">
<path d="M2330 5105 c-697 -86 -1295 -552 -1550 -1210 -148 -383 -164 -836
-44 -1233 146 -484 501 -909 954 -1142 653 -335 1444 -265 2026 180 111 85
273 248 360 362 281 373 415 817 383 1280 -18 268 -79 489 -200 729 -365 719
-1134 1132 -1929 1034z m415 -115 c298 -33 609 -150 845 -318 112 -79 324
-286 402 -392 119 -162 224 -370 277 -546 80 -268 96 -579 46 -851 -75 -401
-302 -784 -620 -1046 l-70 -58 -2 78 c-11 374 -95 600 -303 817 -127 132 -295
236 -452 281 l-66 19 75 44 c187 109 300 295 311 508 9 198 -46 343 -182 480
-64 64 -99 90 -167 123 -182 90 -376 90 -558 0 -106 -52 -228 -169 -279 -266
-67 -128 -91 -316 -57 -448 47 -180 173 -339 330 -415 l47 -23 -84 -27 c-173
-56 -315 -147 -446 -285 -100 -106 -171 -217 -218 -343 -45 -121 -65 -227 -72
-397 l-7 -146 -70 58 c-506 416 -746 1091 -615 1729 113 546 469 1008 965
1249 307 150 646 211 970 175z m-105 -920 c194 -31 365 -186 415 -375 88 -338
-188 -670 -532 -641 -268 22 -473 241 -473 506 0 203 111 379 292 465 104 50
188 62 298 45z m173 -1224 c173 -51 305 -133 433 -268 93 -100 155 -203 200
-336 39 -116 54 -230 54 -413 l0 -136 -130 -67 c-147 -76 -315 -134 -481 -168
-98 -20 -144 -23 -329 -23 -184 0 -231 3 -328 23 -166 33 -308 83 -469 163
l-143 70 0 137 c0 177 15 295 51 407 74 232 252 437 474 548 147 73 261 97
445 92 109 -2 152 -8 223 -29z"/>
<path d="M1183 1089 c-224 -38 -402 -207 -449 -428 -18 -84 -17 -139 1 -226
39 -185 167 -331 353 -404 l67 -26 1365 -3 c988 -2 1384 0 1433 9 202 33 384
207 432 411 65 274 -87 548 -359 647 l-71 26 -1360 1 c-748 1 -1383 -2 -1412
-7z m2738 -119 c84 -16 173 -63 232 -122 232 -232 121 -629 -198 -713 -52 -13
-227 -15 -1395 -15 -1474 0 -1398 -3 -1509 63 -145 87 -228 262 -202 426 29
180 167 326 342 360 65 13 2663 13 2730 1z"/>
<path d="M1400 740 c-11 -11 -20 -28 -20 -38 0 -14 -7 -17 -39 -14 -33 3 -42
0 -56 -22 -21 -31 -13 -57 27 -91 l31 -26 -37 -33 c-42 -40 -44 -55 -12 -93
22 -26 27 -27 55 -16 27 10 31 9 31 -6 0 -9 7 -27 16 -39 30 -43 104 -18 104
35 0 19 3 20 30 10 26 -10 32 -8 55 13 34 32 32 56 -11 96 l-35 34 30 25 c39
34 47 60 26 92 -15 22 -22 25 -56 20 -34 -4 -39 -2 -39 14 0 25 -35 59 -60 59
-11 0 -29 -9 -40 -20z"/>
<path d="M1960 740 c-11 -11 -20 -28 -20 -38 0 -14 -7 -17 -39 -14 -33 3 -42
0 -56 -22 -21 -31 -13 -57 27 -91 l31 -26 -37 -33 c-42 -40 -44 -55 -12 -93
22 -26 27 -27 55 -16 29 10 31 10 31 -11 0 -49 70 -75 103 -38 10 10 17 28 17
39 0 20 3 20 31 10 28 -11 33 -10 55 16 32 38 30 54 -12 93 l-35 34 30 25 c39
34 47 60 26 91 -14 22 -23 25 -56 22 -32 -3 -39 0 -39 14 0 24 -35 58 -60 58
-11 0 -29 -9 -40 -20z"/>
<path d="M2520 740 c-11 -11 -20 -28 -20 -38 0 -14 -7 -17 -39 -14 -33 3 -42
0 -56 -22 -21 -32 -13 -57 28 -92 l31 -26 -31 -27 c-39 -33 -47 -58 -28 -87
18 -28 48 -38 75 -24 17 9 20 8 20 -13 0 -50 70 -76 103 -39 10 10 17 28 17
39 0 20 3 20 31 10 28 -11 33 -10 55 16 32 38 30 54 -12 93 l-35 34 30 25 c39
34 47 60 26 91 -14 22 -23 25 -56 22 -32 -3 -39 0 -39 14 0 24 -35 58 -60 58
-11 0 -29 -9 -40 -20z"/>
<path d="M3080 740 c-11 -11 -20 -28 -20 -38 0 -14 -7 -17 -39 -14 -33 3 -42
0 -56 -22 -21 -31 -13 -57 27 -91 l31 -26 -37 -33 c-42 -40 -44 -55 -12 -93
22 -26 27 -27 55 -16 29 10 31 10 31 -11 0 -49 70 -75 103 -38 10 10 17 28 17
39 0 20 3 20 31 10 28 -11 33 -10 55 16 32 38 30 53 -12 93 l-37 33 31 26 c40
34 48 60 27 91 -14 22 -23 25 -56 22 -32 -3 -39 0 -39 14 0 24 -35 58 -60 58
-11 0 -29 -9 -40 -20z"/>
<path d="M3640 740 c-11 -11 -20 -29 -20 -39 0 -16 -5 -18 -39 -14 -34 5 -41
2 -56 -20 -21 -32 -13 -58 27 -92 l31 -26 -37 -33 c-42 -40 -45 -58 -11 -91
27 -28 37 -30 66 -15 16 9 19 7 19 -13 0 -53 75 -77 104 -35 9 12 16 30 16 39
0 15 4 16 31 6 28 -11 33 -10 55 16 30 35 25 61 -19 98 l-30 26 33 30 c57 51
39 118 -32 111 -31 -3 -38 0 -38 14 0 24 -35 58 -60 58 -11 0 -29 -9 -40 -20z"/>
</g>
</svg>
