<?xml version="1.0" standalone="no"?>
<!DOCTYPE svg PUBLIC "-//W3C//DTD SVG 20010904//EN"
 "http://www.w3.org/TR/2001/REC-SVG-20010904/DTD/svg10.dtd">
<svg version="1.0" xmlns="http://www.w3.org/2000/svg"
 width="512.000000pt" height="512.000000pt" viewBox="0 0 512.000000 512.000000"
 preserveAspectRatio="xMidYMid meet">

<g transform="translate(0.000000,512.000000) scale(0.100000,-0.100000)"
fill="#000000" stroke="none">
<path d="M163 5014 c-50 -18 -112 -75 -138 -129 -27 -53 -27 -165 -1 -215 25
-49 74 -98 121 -123 39 -21 52 -22 426 -25 l386 -3 69 -282 c46 -187 75 -288
87 -300 27 -27 85 -19 111 16 l20 27 -78 318 c-64 261 -82 321 -102 342 l-24
25 -415 5 -415 5 -26 26 c-16 16 -28 41 -31 67 -5 38 -2 45 30 77 l36 36 428
-3 428 -3 57 -28 c61 -30 106 -75 138 -138 11 -22 149 -563 306 -1202 226
-922 284 -1170 279 -1202 -14 -91 -74 -142 -185 -156 -79 -10 -120 -27 -168
-73 -127 -119 -93 -329 66 -408 l47 -23 800 -3 c440 -1 810 0 823 3 32 8 62
41 62 69 0 13 -9 35 -21 50 l-20 26 -792 1 c-586 0 -801 3 -827 12 -41 14 -76
73 -66 112 13 53 46 75 125 86 86 12 142 36 199 85 45 38 96 132 107 192 l6
39 1293 5 c940 4 1298 8 1313 16 12 7 26 27 32 44 17 52 471 1951 471 1969 0
9 -9 27 -19 40 l-19 24 -1788 5 -1787 5 -41 160 c-24 93 -54 182 -71 213 -55
101 -181 195 -296 221 -26 6 -216 10 -469 10 -350 0 -432 -3 -467 -15z m1941
-982 c25 -131 46 -244 46 -250 0 -9 -60 -12 -242 -10 l-242 3 -58 230 c-31
127 -57 238 -58 248 0 16 19 17 254 17 l254 0 46 -238z m650 26 c10 -117 20
-230 23 -250 l6 -38 -236 0 c-216 0 -236 1 -241 18 -3 9 -23 112 -46 227 -22
116 -43 220 -46 233 l-4 22 263 0 263 0 18 -212z m856 190 c0 -13 -9 -120 -20
-238 -11 -118 -20 -221 -20 -227 0 -10 -71 -13 -320 -13 -176 0 -320 3 -320 8
0 4 -9 104 -20 222 -11 118 -20 227 -20 243 l0 27 360 0 360 0 0 -22z m676 5
c-3 -10 -23 -115 -46 -233 -23 -118 -43 -223 -46 -232 -5 -17 -25 -18 -241
-18 l-236 0 6 48 c4 26 14 138 23 250 l17 202 264 0 c247 0 264 -1 259 -17z
m660 0 c-3 -10 -28 -115 -56 -233 -28 -118 -53 -223 -56 -232 -5 -17 -25 -18
-245 -18 -210 0 -239 2 -239 16 0 8 21 121 46 250 l47 234 254 0 c238 0 254
-1 249 -17z m-2717 -861 c25 -125 46 -237 49 -249 l4 -23 -226 0 c-196 0 -227
2 -233 16 -3 8 -31 121 -63 250 l-57 234 241 0 241 0 44 -228z m565 196 c7
-46 36 -396 36 -436 l0 -32 -197 2 -198 3 -47 235 c-26 129 -47 241 -47 248
-1 9 50 12 224 12 l224 0 5 -32z m744 -185 c-10 -120 -21 -233 -24 -250 l-5
-33 -259 0 -260 0 -4 23 c-3 12 -12 112 -21 222 -8 110 -18 212 -20 228 l-4
27 307 0 308 0 -18 -217z m616 180 c-3 -21 -25 -132 -48 -248 l-42 -210 -189
-3 c-104 -1 -194 -1 -200 2 -7 2 -4 80 11 247 12 134 23 245 23 247 1 1 102 2
226 2 l225 0 -6 -37z m636 25 c-1 -7 -27 -119 -58 -248 l-58 -235 -228 -3
-228 -2 4 22 c3 13 24 125 48 251 l44 227 238 0 c184 0 238 -3 238 -12z
m-2476 -655 c3 -10 24 -115 46 -233 23 -118 43 -223 46 -232 5 -17 -10 -18
-209 -18 l-214 0 -6 28 c-3 15 -30 127 -60 250 l-54 222 223 0 c203 0 223 -2
228 -17z m536 5 c0 -7 9 -112 20 -233 11 -121 20 -228 20 -237 0 -16 -14 -18
-164 -18 l-164 0 -46 238 c-25 130 -46 243 -46 250 0 9 45 12 190 12 145 0
190 -3 190 -12z m646 -35 c-3 -27 -13 -133 -21 -238 -9 -104 -18 -196 -20
-202 -3 -10 -54 -13 -210 -13 l-205 0 0 23 c0 12 -9 121 -20 242 -11 121 -20
223 -20 228 0 4 113 7 251 7 l251 0 -6 -47z m534 35 c0 -23 -89 -468 -95 -478
-4 -6 -71 -10 -166 -10 -158 0 -159 0 -159 23 0 12 9 121 20 242 11 121 20
223 20 228 0 4 86 7 190 7 145 0 190 -3 190 -12z m605 0 c-2 -7 -27 -110 -55
-228 -28 -118 -53 -223 -56 -232 -5 -16 -24 -18 -220 -18 -200 0 -215 1 -210
18 3 9 24 114 46 232 23 118 44 221 46 228 2 9 57 12 228 12 176 0 224 -3 221
-12z"/>
<path d="M1180 3770 c-11 -11 -20 -33 -20 -49 0 -22 272 -1157 295 -1232 4
-12 -12 -25 -60 -48 -133 -66 -253 -208 -302 -356 -33 -102 -37 -256 -9 -350
49 -163 166 -307 306 -378 96 -48 162 -65 283 -73 l97 -7 -53 -56 c-101 -108
-157 -223 -178 -374 -13 -89 -4 -199 23 -282 22 -68 98 -85 134 -29 16 23 16
31 -1 122 -16 82 -17 108 -7 175 38 258 255 447 516 447 387 0 637 -399 467
-745 -86 -174 -245 -280 -436 -292 -135 -8 -240 25 -358 113 -65 48 -93 54
-128 25 -17 -13 -23 -29 -23 -56 0 -32 6 -44 40 -72 62 -54 143 -99 229 -128
340 -114 717 69 841 409 84 233 31 496 -138 681 l-60 65 507 0 507 0 -60 -66
c-69 -74 -132 -189 -158 -284 -27 -103 -23 -264 9 -365 59 -179 178 -320 339
-400 119 -59 213 -79 338 -72 176 9 320 75 448 205 144 146 212 357 182 557
-22 145 -83 270 -182 371 l-50 52 153 4 c173 4 216 17 278 79 49 49 71 103 71
178 0 79 -24 134 -82 186 -75 68 -38 65 -777 65 l-670 0 -20 -26 c-34 -43 -26
-86 20 -109 24 -13 127 -15 674 -15 l647 0 29 -29 c34 -34 40 -92 13 -130 -38
-53 38 -51 -1626 -51 -975 0 -1569 4 -1613 10 -318 46 -495 385 -350 671 51
100 163 192 280 229 55 17 75 37 75 75 0 18 -72 326 -160 686 -172 702 -168
689 -231 689 -16 0 -38 -9 -49 -20z m3035 -2504 c90 -24 167 -68 236 -137 77
-76 122 -159 145 -269 75 -357 -256 -684 -618 -609 -259 53 -449 322 -409 579
34 214 162 364 371 431 67 22 204 24 275 5z"/>
<path d="M4010 1116 c-227 -50 -351 -294 -255 -503 32 -71 102 -143 172 -179
53 -26 67 -29 158 -29 121 1 169 19 249 95 130 123 151 317 50 467 -57 83
-135 133 -239 152 -68 13 -64 13 -135 -3z m157 -157 c17 -6 49 -30 71 -53 78
-85 82 -193 10 -280 -82 -100 -243 -101 -325 -2 -76 93 -69 204 17 288 67 65
128 77 227 47z"/>
<path d="M2130 1116 c-115 -25 -205 -96 -255 -202 -25 -51 -29 -71 -30 -149 0
-79 4 -98 29 -152 34 -73 113 -153 183 -186 39 -18 66 -22 148 -22 91 0 105 3
158 29 71 36 140 108 175 184 22 47 27 71 27 142 0 74 -4 93 -31 150 -54 114
-148 187 -269 209 -68 13 -64 13 -135 -3z m167 -163 c47 -21 100 -85 113 -134
34 -126 -56 -256 -185 -267 -164 -14 -283 148 -216 293 52 112 177 159 288
108z"/>
</g>
</svg>
