<?xml version="1.0" standalone="no"?>
<!DOCTYPE svg PUBLIC "-//W3C//DTD SVG 20010904//EN"
 "http://www.w3.org/TR/2001/REC-SVG-20010904/DTD/svg10.dtd">
<svg version="1.0" xmlns="http://www.w3.org/2000/svg"
 width="512.000000pt" height="512.000000pt" viewBox="0 0 512.000000 512.000000"
 preserveAspectRatio="xMidYMid meet">

<g transform="translate(0.000000,512.000000) scale(0.100000,-0.100000)"
fill="#000000" stroke="none">
<path d="M2390 5110 c-157 -22 -329 -75 -461 -140 -173 -88 -359 -245 -485
-412 -221 -294 -323 -702 -255 -1023 72 -340 322 -891 718 -1583 58 -101 103
-185 101 -187 -2 -2 -83 -15 -181 -30 -293 -42 -537 -112 -712 -203 -95 -50
-206 -160 -228 -226 -120 -355 357 -605 1290 -677 197 -15 785 -6 953 15 743
94 1120 279 1120 551 0 99 -23 150 -104 230 -155 153 -463 261 -915 320 -63 8
-116 17 -119 19 -2 3 45 92 106 198 346 609 584 1113 676 1435 52 181 60 237
53 403 -14 360 -166 688 -437 943 -186 175 -414 294 -668 347 -111 24 -350 34
-452 20z m395 -314 c406 -87 729 -397 836 -802 30 -113 37 -307 15 -408 -79
-355 -403 -1024 -893 -1843 -63 -105 -123 -199 -134 -209 -25 -22 -73 -22 -98
0 -20 18 -185 290 -329 541 -370 648 -619 1182 -693 1490 -23 99 -25 251 -3
365 86 456 452 806 920 880 81 12 294 5 379 -14z m-552 -3394 c91 -141 237
-209 389 -182 118 22 200 79 268 187 l42 66 96 -7 c220 -17 553 -83 707 -141
85 -32 179 -82 202 -107 17 -19 17 -20 -7 -39 -146 -116 -531 -213 -979 -248
-174 -14 -608 -14 -782 0 -448 35 -833 132 -979 248 -24 19 -24 20 -7 39 23
25 117 75 201 107 168 63 555 137 753 143 l52 2 44 -68z"/>
<path d="M2432 4366 c-268 -68 -446 -307 -429 -577 19 -299 257 -524 557 -524
300 0 538 225 557 524 12 198 -81 386 -245 494 -100 66 -169 88 -287 93 -63 2
-119 -1 -153 -10z m228 -307 c55 -25 105 -71 133 -124 31 -57 30 -173 0 -231
-42 -79 -147 -144 -233 -144 -86 0 -191 65 -233 144 -30 58 -31 174 0 231 47
88 138 145 233 145 34 0 72 -8 100 -21z"/>
<path d="M413 1514 c-153 -80 -299 -217 -359 -339 -68 -138 -69 -276 -1 -414
40 -82 179 -226 287 -296 346 -225 956 -386 1695 -447 200 -17 846 -16 1050 0
737 60 1348 221 1695 447 108 70 247 214 287 296 97 198 55 398 -121 574 -84
84 -208 173 -282 201 -60 23 -108 12 -155 -35 -48 -47 -58 -95 -34 -157 15
-40 28 -52 116 -109 151 -98 229 -188 229 -265 0 -103 -140 -234 -363 -340
-641 -305 -1841 -414 -2865 -259 -649 98 -1161 311 -1272 528 -53 105 10 207
209 336 88 57 101 69 116 109 30 78 -5 160 -82 192 -49 21 -75 17 -150 -22z"/>
</g>
</svg>
