<?xml version="1.0" standalone="no"?>
<!DOCTYPE svg PUBLIC "-//W3C//DTD SVG 20010904//EN"
 "http://www.w3.org/TR/2001/REC-SVG-20010904/DTD/svg10.dtd">
<svg version="1.0" xmlns="http://www.w3.org/2000/svg"
 width="512.000000pt" height="512.000000pt" viewBox="0 0 512.000000 512.000000"
 preserveAspectRatio="xMidYMid meet">

<g transform="translate(0.000000,512.000000) scale(0.100000,-0.100000)"
fill="#000000" stroke="none">
<path d="M4259 5107 c-73 -21 -128 -59 -229 -161 -52 -53 -98 -96 -101 -96 -4
0 -21 24 -37 53 -37 65 -105 127 -181 164 l-56 28 -1655 0 -1655 0 -58 -27
c-80 -38 -160 -117 -200 -197 l-32 -66 -3 -1712 -2 -1712 22 -21 c40 -37 98
-22 117 31 8 23 11 506 11 1692 0 1274 3 1669 12 1701 16 55 99 138 154 154
32 9 414 12 1641 12 l1599 0 52 -26 c64 -32 107 -83 129 -152 l17 -53 -381
-382 c-210 -210 -395 -404 -413 -432 -51 -83 -80 -191 -80 -303 0 -53 4 -111
9 -128 8 -29 5 -35 -36 -75 -72 -71 -96 -119 -101 -209 -4 -67 -1 -85 20 -132
51 -110 146 -172 263 -172 89 -1 151 26 221 95 l51 51 62 -13 c104 -20 238 0
363 55 17 8 18 -64 20 -1281 l3 -1288 27 -73 c34 -93 79 -168 140 -232 l48
-50 -1723 2 -1722 3 -58 22 c-129 49 -239 155 -288 280 -22 55 -24 75 -29 350
-5 284 -6 293 -27 314 -26 27 -77 28 -105 3 -18 -18 -19 -31 -16 -329 l3 -310
31 -77 c62 -153 168 -269 309 -339 148 -73 3 -69 2161 -69 1909 0 1942 0 2020
20 124 32 198 73 290 165 88 87 122 141 162 255 l27 75 3 998 3 997 -25 25
-25 25 -531 0 -530 0 0 322 0 323 192 192 c165 165 191 196 191 222 0 43 -28
71 -71 71 -33 0 -53 -18 -266 -228 -253 -251 -282 -272 -412 -294 -190 -32
-375 64 -461 240 -37 75 -38 78 -38 192 0 114 1 117 37 191 35 69 68 105 530
567 l493 492 310 -310 310 -310 -168 -168 c-142 -143 -167 -173 -167 -198 0
-39 36 -74 76 -74 24 0 56 27 197 168 l168 167 25 -28 c18 -21 24 -40 24 -75
l0 -46 -330 -331 c-296 -297 -330 -334 -330 -363 0 -42 30 -72 73 -72 29 0 64
32 364 333 359 359 372 376 373 476 0 73 -17 124 -57 170 -18 22 -33 43 -33
48 0 5 10 29 22 54 19 37 23 60 23 144 0 160 -2 164 -248 412 -178 179 -218
215 -269 238 -71 32 -180 42 -249 22z m166 -148 c56 -15 417 -372 441 -436 16
-42 17 -154 0 -170 -4 -4 -142 128 -307 292 l-299 300 27 12 c35 15 87 16 138
2z m-1405 -1679 c0 -15 119 -138 157 -161 l34 -21 -22 -24 c-53 -56 -147 -54
-203 5 -29 30 -43 90 -32 134 10 43 66 100 66 67z m1150 -1783 c0 -1029 -4
-971 76 -1051 129 -129 342 -89 420 79 l24 50 0 918 0 917 110 0 110 0 -1
-917 c0 -834 -2 -924 -17 -984 -48 -184 -208 -325 -398 -352 -238 -35 -467
121 -529 358 -13 51 -15 185 -15 977 l0 918 110 0 110 0 0 -913z m370 2 l0
-911 -34 -34 c-28 -28 -42 -34 -76 -34 -34 0 -48 6 -76 34 l-34 34 0 911 0
911 110 0 110 0 0 -911z"/>
<path d="M739 4506 c-47 -23 -49 -40 -49 -393 l0 -332 -26 -20 c-35 -28 -47
-27 -109 9 -45 26 -56 28 -82 19 -29 -9 -53 -44 -53 -74 0 -22 50 -74 91 -96
87 -44 182 -33 251 29 77 70 78 71 78 473 0 327 -1 357 -17 371 -26 22 -58 27
-84 14z"/>
<path d="M1373 4509 c-216 -27 -392 -231 -393 -454 0 -131 51 -247 150 -338
296 -274 770 -66 770 338 0 131 -51 246 -150 339 -58 54 -154 103 -219 111
-25 3 -57 7 -71 9 -14 1 -53 -1 -87 -5z m192 -174 c112 -49 175 -140 183 -261
6 -97 -15 -158 -79 -228 -66 -72 -130 -100 -229 -100 -55 -1 -87 5 -121 21
-237 108 -254 435 -30 557 90 48 184 52 276 11z"/>
<path d="M2093 4514 c-53 -12 -53 -16 -53 -465 l0 -418 26 -20 c24 -19 40 -21
184 -21 179 0 233 11 301 64 25 18 58 58 74 87 26 47 30 64 30 134 0 70 -4 87
-30 133 -16 30 -42 64 -57 77 l-28 24 22 38 c32 53 32 170 1 229 -26 48 -82
100 -132 122 -36 15 -287 27 -338 16z m305 -171 c35 -26 50 -80 32 -123 -19
-46 -55 -60 -155 -60 l-85 0 0 106 0 106 90 -4 c70 -3 96 -9 118 -25z m30
-347 c55 -29 77 -63 77 -121 0 -43 -5 -59 -25 -80 -40 -44 -79 -55 -190 -55
l-100 0 0 135 0 135 105 0 c72 0 115 -5 133 -14z"/>
<path d="M2003 3340 c-34 -14 -43 -42 -43 -134 l0 -85 -492 -3 c-471 -4 -497
-5 -573 -26 -266 -74 -467 -261 -558 -519 -30 -85 -31 -94 -35 -294 -4 -185
-2 -215 17 -290 71 -282 280 -497 563 -580 92 -27 409 -38 539 -19 342 50 613
311 675 650 10 55 13 187 14 503 l0 427 114 0 c112 0 115 1 135 26 34 43 26
86 -20 109 -19 10 -60 15 -129 15 l-100 0 0 80 c0 93 -12 125 -53 140 -16 5
-30 10 -31 9 -1 0 -11 -4 -23 -9z m-45 -827 c-4 -509 -3 -496 -76 -638 -49
-95 -172 -218 -267 -267 -130 -67 -163 -73 -415 -73 -219 0 -227 1 -307 28
-101 34 -215 108 -282 184 -62 70 -126 189 -146 274 -21 89 -21 373 0 454 67
259 282 450 545 485 30 4 257 8 503 9 l448 1 -3 -457z"/>
<path d="M691 2674 c-12 -15 -21 -33 -21 -40 0 -28 24 -63 49 -74 18 -7 180
-10 525 -8 l498 3 19 24 c25 30 24 76 -1 101 -19 19 -33 20 -534 20 l-515 0
-20 -26z"/>
<path d="M714 2328 c-22 -10 -44 -47 -44 -72 0 -7 9 -25 21 -40 l20 -26 515 0
c501 0 515 1 534 20 25 25 26 71 1 101 l-19 24 -504 2 c-334 1 -510 -2 -524
-9z"/>
<path d="M695 1945 c-14 -13 -25 -36 -25 -50 0 -14 11 -37 25 -50 l24 -25 355
0 c244 0 363 4 380 11 34 16 47 57 31 96 -7 16 -20 33 -30 37 -9 3 -178 6
-376 6 l-360 0 -24 -25z"/>
<path d="M2280 2320 c-43 -43 -14 -113 52 -125 18 -3 291 -5 606 -3 l574 3 19
24 c25 30 24 76 -1 101 -20 20 -33 20 -625 20 -592 0 -605 0 -625 -20z"/>
<path d="M2285 1955 c-32 -31 -33 -74 -2 -103 l23 -22 600 0 601 0 21 23 c31
33 29 80 -4 106 -26 21 -35 21 -621 21 l-594 0 -24 -25z"/>
<path d="M2282 1177 c-27 -29 -28 -67 -3 -98 l19 -24 599 -3 c596 -2 600 -2
626 18 34 27 37 80 7 110 -20 20 -33 20 -623 20 l-604 0 -21 -23z"/>
<path d="M714 828 c-22 -10 -44 -47 -44 -72 0 -7 9 -25 21 -40 l20 -26 515 0
c501 0 515 1 534 20 25 25 26 71 1 101 l-19 24 -504 2 c-334 1 -510 -2 -524
-9z"/>
<path d="M2303 830 c-44 -18 -57 -86 -23 -120 20 -20 33 -20 625 -20 592 0
605 0 625 20 25 25 26 71 1 101 l-19 24 -594 2 c-330 1 -603 -2 -615 -7z"/>
<path d="M719 469 c-25 -9 -49 -45 -49 -73 0 -7 9 -25 21 -40 l20 -26 515 0
c501 0 515 1 534 20 25 25 26 71 1 101 l-19 24 -499 2 c-304 1 -508 -2 -524
-8z"/>
<path d="M2286 449 c-34 -27 -35 -71 -1 -104 l24 -25 594 0 c586 0 595 0 621
21 19 15 26 30 26 54 0 24 -7 39 -26 54 -26 21 -35 21 -619 21 -584 0 -593 0
-619 -21z"/>
</g>
</svg>
